<svg width="778" height="755" viewBox="0 0 778 755" fill="none" xmlns="http://www.w3.org/2000/svg">
<path d="M389 754.488C603.839 754.488 778 653.936 778 529.898C778 405.86 603.839 305.308 389 305.308C174.161 305.308 0 405.86 0 529.898C0 653.936 174.161 754.488 389 754.488Z" fill="#F0F0F0"/>
<path d="M612.401 607.827C586.893 593.1 586.893 569.226 612.401 554.499C637.91 539.771 679.268 539.771 704.777 554.499C730.285 569.226 730.285 593.1 704.777 607.827C679.268 622.554 637.91 622.554 612.401 607.827Z" fill="#E0E0E0"/>
<path d="M93.5806 609.874L26.4826 571.141C22.7017 568.962 22.7017 565.412 26.4826 563.232L416.77 337.899C418.892 336.825 421.236 336.264 423.614 336.264C425.992 336.264 428.336 336.825 430.457 337.899L497.572 376.633C501.353 378.812 501.353 382.362 497.572 384.541L107.284 609.874C105.16 610.949 102.813 611.509 100.432 611.509C98.0518 611.509 95.7046 610.949 93.5806 609.874Z" fill="#E0E0E0"/>
<path d="M334.764 540.828L392.451 507.477C398.394 504.043 401.366 499.552 401.366 495.045C401.366 490.537 401.366 487.021 401.366 487.021L341.533 453.274C339.861 452.193 338.47 450.732 337.471 449.01C336.472 447.288 335.895 445.355 335.787 443.367V372.224L235.074 430.44V501.55C235.19 503.535 235.77 505.466 236.768 507.187C237.766 508.907 239.154 510.369 240.82 511.456L291.738 540.778C303.592 547.696 322.876 547.696 334.764 540.828Z" fill="#FFC100"/>
<g opacity="0.6">
<path d="M334.764 540.828L392.451 507.477C398.394 504.043 401.366 499.552 401.366 495.045C401.366 490.537 401.366 487.021 401.366 487.021L341.533 453.274C339.861 452.193 338.47 450.732 337.471 449.01C336.472 447.288 335.895 445.355 335.787 443.367V372.224L235.074 430.44V501.55C235.19 503.535 235.77 505.466 236.768 507.187C237.766 508.907 239.154 510.369 240.82 511.456L291.738 540.778C303.592 547.696 322.876 547.696 334.764 540.828Z" fill="black"/>
</g>
<path opacity="0.3" d="M259.229 514.147V522.138L240.77 511.489C239.105 510.403 237.718 508.941 236.723 507.22C235.728 505.499 235.151 503.568 235.041 501.583V430.44L254.226 419.361C254.622 424.232 255.052 429.268 255.464 434.221L241.975 441.981V497.538C242.082 499.526 242.659 501.46 243.658 503.182C244.656 504.903 246.049 506.364 247.721 507.444L259.229 514.147Z" fill="black"/>
<path d="M241.975 497.554C242.089 499.541 242.668 501.472 243.666 503.193C244.664 504.914 246.053 506.376 247.721 507.461L291.672 532.787C303.559 539.639 322.843 539.656 334.747 532.787L392.533 499.437C404.437 492.568 404.437 481.44 392.533 474.572L348.55 449.245C346.886 448.158 345.501 446.695 344.506 444.974C343.511 443.254 342.933 441.323 342.821 439.339V383.765L242.108 441.981L241.975 497.554Z" fill="#FFC100"/>
<path opacity="0.3" d="M241.975 497.554C242.089 499.541 242.668 501.472 243.666 503.193C244.664 504.914 246.053 506.376 247.721 507.461L291.672 532.787C303.559 539.639 322.843 539.656 334.747 532.787L392.533 499.437C404.437 492.568 404.437 481.44 392.533 474.572L348.55 449.245C346.886 448.158 345.501 446.695 344.506 444.974C343.511 443.254 342.933 441.323 342.821 439.339V383.765L242.108 441.981L241.975 497.554Z" fill="black"/>
<path opacity="0.5" d="M360.189 456.031L348.484 449.278C346.82 448.191 345.435 446.728 344.44 445.007C343.445 443.287 342.867 441.356 342.755 439.372V383.765L242.042 441.981V497.554C242.155 499.541 242.734 501.472 243.732 503.193C244.73 504.914 246.119 506.376 247.787 507.461L259.344 514.065L360.189 456.031Z" fill="black"/>
<path d="M401.383 487.037V495.061C401.383 499.569 398.394 504.043 392.467 507.494L334.681 540.828C328.357 544.204 321.294 545.957 314.126 545.93V537.939C321.294 537.966 328.357 536.213 334.681 532.837L392.467 499.47C398.394 496.052 401.383 491.545 401.383 487.037Z" fill="#FFC100"/>
<path opacity="0.5" d="M401.383 487.037V495.061C401.383 499.569 398.394 504.043 392.467 507.494L334.681 540.828C328.357 544.204 321.294 545.957 314.126 545.93V537.939C321.294 537.966 328.357 536.213 334.681 532.837L392.467 499.47C398.394 496.052 401.383 491.545 401.383 487.037Z" fill="black"/>
<path d="M80.1742 566.617C82.3514 567.669 84.7453 568.194 87.1628 568.151C89.5803 568.108 91.9539 567.498 94.0924 566.369L483.736 341.416C485.826 340.053 487.564 338.218 488.812 336.058C490.06 333.898 490.781 331.475 490.918 328.984V13.7686C490.844 11.3455 490.198 8.97427 489.033 6.84823C487.868 4.72219 486.217 2.90145 484.215 1.53441C482.041 0.481635 479.648 -0.0431298 477.233 0.00277186C474.817 0.0486735 472.446 0.663946 470.313 1.79857L80.6695 226.818C78.5875 228.189 76.8591 230.033 75.6253 232.199C74.3916 234.366 73.6873 236.793 73.5701 239.283V554.449C73.6437 556.852 74.2795 559.205 75.4263 561.318C76.5732 563.431 78.1993 565.246 80.1742 566.617Z" fill="#FFC100"/>
<path d="M94.1419 566.353L483.786 341.4C485.878 340.04 487.619 338.205 488.867 336.044C490.115 333.884 490.835 331.459 490.968 328.967V13.7686C490.968 9.1952 487.748 7.32954 483.786 9.62447L94.1419 234.578C92.0518 235.94 90.3121 237.775 89.0642 239.935C87.8164 242.095 87.0954 244.519 86.9599 247.01V562.209C86.9599 566.782 90.1795 568.648 94.1419 566.353Z" fill="#FFC100"/>
<path opacity="0.5" d="M94.1419 566.353L483.786 341.4C485.878 340.04 487.619 338.205 488.867 336.044C490.115 333.884 490.835 331.459 490.968 328.967V13.7686C490.968 9.1952 487.748 7.32954 483.786 9.62447L94.1419 234.578C92.0518 235.94 90.3121 237.775 89.0642 239.935C87.8164 242.095 87.0954 244.519 86.9599 247.01V562.209C86.9599 566.782 90.1795 568.648 94.1419 566.353Z" fill="black"/>
<path d="M93.0853 574.542C91.042 575.434 88.8297 575.872 86.6008 575.827C84.3718 575.781 82.1793 575.253 80.1742 574.278C78.1949 572.903 76.5661 571.083 75.419 568.964C74.2719 566.845 73.6386 564.486 73.5701 562.077V533.382L87.026 541.175V569.87C86.9434 574.047 89.6016 575.945 93.0853 574.542Z" fill="#FFC100"/>
<path opacity="0.5" d="M93.0853 574.542C91.042 575.434 88.8297 575.872 86.6008 575.827C84.3718 575.781 82.1793 575.253 80.1742 574.278C78.1949 572.903 76.5661 571.083 75.419 568.964C74.2719 566.845 73.6386 564.486 73.5701 562.077V533.382L87.026 541.175V569.87C86.9434 574.047 89.6016 575.945 93.0853 574.542Z" fill="black"/>
<path d="M86.9434 541.175V569.87C86.9434 574.443 90.2455 576.292 94.1254 574.014L483.769 349.06C485.85 347.704 487.583 345.879 488.831 343.731C490.078 341.584 490.804 339.173 490.951 336.694V307.867L86.9434 541.175Z" fill="#FFC100"/>
<path opacity="0.3" d="M86.9599 541.109V569.87C86.9599 574.443 90.262 576.292 94.1419 574.014L483.786 349.06C485.863 347.702 487.594 345.876 488.838 343.729C490.083 341.581 490.806 339.172 490.951 336.694V307.867L86.9599 541.109Z" fill="black"/>
<path d="M100.416 505.1V251.484C100.493 249.99 100.922 248.535 101.668 247.238C102.414 245.942 103.456 244.839 104.709 244.022L473.12 31.253C475.498 29.8826 477.429 30.9888 477.429 33.7296V287.477C477.349 288.972 476.917 290.428 476.169 291.724C475.42 293.021 474.375 294.123 473.12 294.94L104.725 507.659C102.348 509.029 100.416 507.906 100.416 505.1Z" fill="#FFC100"/>
<path d="M100.416 505.1V251.484C100.493 249.99 100.922 248.535 101.668 247.238C102.414 245.942 103.456 244.839 104.709 244.022L473.12 31.253C475.498 29.8826 477.429 30.9888 477.429 33.7296V287.477C477.349 288.972 476.917 290.428 476.169 291.724C475.42 293.021 474.375 294.123 473.12 294.94L104.725 507.659C102.348 509.029 100.416 507.906 100.416 505.1Z" fill="#263238"/>
<path d="M288.947 433.659C286.986 434.935 285.354 436.655 284.183 438.681C283.013 440.706 282.337 442.98 282.211 445.316C282.211 449.608 285.233 451.358 288.947 449.212C290.911 447.935 292.544 446.212 293.715 444.183C294.886 442.155 295.56 439.878 295.684 437.539C295.684 433.247 292.662 431.513 288.947 433.659Z" fill="#FFC100"/>
<path opacity="0.7" d="M89.0733 239.911C87.7937 242.061 87.0623 244.494 86.9434 246.994V541.175L73.5701 533.382V239.283C73.6567 236.775 74.3843 234.331 75.6834 232.184L89.0733 239.911Z" fill="black"/>
<path opacity="0.3" d="M490.885 12.5798C490.373 8.8815 487.385 7.62672 483.769 9.62447L94.1254 234.578C92.0128 235.899 90.2691 237.734 89.0567 239.911L75.5843 232.134C76.8047 229.958 78.5536 228.124 80.6695 226.801L470.313 1.86461C472.449 0.729827 474.823 0.114526 477.241 0.0686282C479.659 0.0227305 482.054 0.54753 484.232 1.60045C486.062 2.84757 487.603 4.47317 488.751 6.36735C489.899 8.26152 490.627 10.3801 490.885 12.5798Z" fill="black"/>
<path d="M511.903 51.3791C511.324 51.0887 510.677 50.9613 510.031 51.0108C509.386 51.0602 508.765 51.2846 508.238 51.6598L140.585 264.049C139.135 265.008 137.93 266.296 137.07 267.808C136.209 269.319 135.717 271.012 135.632 272.75V524.813C135.581 525.664 135.75 526.514 136.123 527.28C136.496 528.047 137.061 528.704 137.762 529.188C138.571 529.634 142.897 532.144 144.185 532.837C144.64 533.069 145.149 533.176 145.66 533.147C146.17 533.118 146.664 532.954 147.091 532.672L514.66 320.283C516.111 319.323 517.315 318.036 518.176 316.524C519.036 315.012 519.529 313.319 519.613 311.582V58.2144C519.687 57.5741 519.581 56.926 519.307 56.3427C519.033 55.7594 518.601 55.2641 518.061 54.9123C517.236 54.3675 512.827 51.9239 511.903 51.3791Z" fill="#FFC100"/>
<path d="M147.008 267.615L514.677 55.3086C517.45 53.6575 519.63 55.0114 519.63 58.2144V311.582C519.545 313.319 519.053 315.012 518.192 316.524C517.332 318.036 516.127 319.323 514.677 320.283L147.008 532.672C144.234 534.323 142.055 531.665 142.055 528.462V276.316C142.142 274.579 142.636 272.887 143.496 271.376C144.356 269.865 145.559 268.577 147.008 267.615Z" fill="#FAFAFA"/>
<path d="M516.922 56.2662C517.896 56.2662 518.045 57.4879 518.045 58.2144V311.582C517.956 313.037 517.529 314.451 516.798 315.712C516.067 316.973 515.053 318.046 513.835 318.847L146.216 531.235C145.969 531.395 145.684 531.487 145.39 531.5C144.465 531.5 143.739 530.08 143.739 528.462V276.316C143.819 274.862 144.233 273.445 144.948 272.177C145.664 270.908 146.663 269.822 147.867 269.002L515.502 56.7285C515.927 56.454 516.417 56.2947 516.922 56.2662ZM516.922 54.6151C516.126 54.649 515.353 54.8879 514.677 55.3086L147.008 267.615C145.559 268.577 144.356 269.865 143.496 271.376C142.636 272.887 142.142 274.579 142.055 276.316V528.462C142.055 531.004 143.475 533.151 145.357 533.151C145.94 533.14 146.51 532.974 147.008 532.672L514.66 320.283C516.111 319.323 517.315 318.036 518.176 316.524C519.036 315.012 519.529 313.319 519.613 311.582V58.2144C519.613 55.936 518.491 54.6151 516.84 54.6151H516.922Z" fill="#E0E0E0"/>
<path d="M137.663 529.188C138.208 529.469 142.121 531.698 143.838 532.688C143.221 532.177 142.733 531.528 142.412 530.794C142.091 530.061 141.946 529.262 141.989 528.462V292.777L135.55 289.012V524.813C135.497 525.662 135.663 526.511 136.033 527.278C136.403 528.044 136.965 528.702 137.663 529.188Z" fill="#F0F0F0"/>
<path d="M519.696 58.1649C519.696 54.9949 517.434 53.7071 514.743 55.3086L147.008 267.615C145.559 268.577 144.356 269.865 143.496 271.376C142.636 272.887 142.142 274.579 142.055 276.316V292.826L519.696 74.6752V58.1649Z" fill="#FFC100"/>
<g opacity="0.4">
<path d="M514.677 55.3086L147.008 267.598C145.532 268.529 144.317 269.818 143.475 271.346L137.085 267.631C137.926 266.157 139.131 264.923 140.586 264.049L508.238 51.6598C508.764 51.282 509.383 51.0547 510.029 51.0023C510.675 50.95 511.323 51.0745 511.903 51.3626C512.794 51.924 516.972 54.2849 518.045 54.8628C517.49 54.6569 516.892 54.5899 516.305 54.6676C515.718 54.7453 515.159 54.9654 514.677 55.3086Z" fill="white"/>
</g>
<path opacity="0.15" d="M135.55 289.029V272.667C135.618 270.884 136.147 269.149 137.085 267.631L143.491 271.33C142.566 272.821 142.048 274.529 141.989 276.283V292.793L135.55 289.029Z" fill="black"/>
<path d="M442.163 248.232L221.965 375.361C220.894 376.056 220.003 376.994 219.363 378.099C218.723 379.203 218.353 380.443 218.283 381.718V444.853C218.353 446.128 218.723 447.368 219.363 448.473C220.003 449.577 220.894 450.515 221.965 451.21L228.387 454.908C229.529 455.486 230.79 455.786 232.069 455.786C233.348 455.786 234.61 455.486 235.751 454.908L455.916 327.779C456.988 327.08 457.879 326.139 458.519 325.032C459.158 323.925 459.528 322.682 459.598 321.406V258.254C459.528 256.979 459.158 255.739 458.519 254.634C457.879 253.53 456.987 252.592 455.916 251.897L449.477 248.199C448.341 247.631 447.087 247.338 445.816 247.344C444.546 247.349 443.295 247.654 442.163 248.232Z" fill="#FFC100"/>
<path opacity="0.5" d="M459.598 257.692C459.334 255.794 457.799 255.1 455.949 256.173L235.751 383.303C234.665 383.978 233.772 384.922 233.159 386.044L219.373 378.086C219.991 376.981 220.876 376.05 221.948 375.378L442.163 248.248C443.301 247.67 444.56 247.368 445.837 247.368C447.114 247.368 448.372 247.67 449.51 248.248L455.949 251.947C456.931 252.59 457.764 253.435 458.394 254.426C459.023 255.417 459.433 256.53 459.598 257.692Z" fill="white"/>
<path d="M235.124 455.222C234.046 455.647 232.89 455.84 231.732 455.789C230.574 455.737 229.44 455.443 228.404 454.925L221.965 451.226C220.896 450.53 220.006 449.591 219.366 448.487C218.727 447.383 218.356 446.144 218.283 444.87V381.734C218.333 380.446 218.708 379.19 219.373 378.086L233.159 386.044C232.489 387.134 232.114 388.38 232.069 389.659V452.811C232.069 454.908 233.39 455.882 235.124 455.222Z" fill="#263238"/>
<path d="M235.751 383.303L455.949 256.173C457.98 255.001 459.631 255.942 459.631 258.287V321.439C459.561 322.715 459.191 323.958 458.552 325.065C457.912 326.172 457.021 327.113 455.949 327.812L235.784 454.941C233.753 456.113 232.102 455.156 232.102 452.811V389.676C232.169 388.402 232.533 387.161 233.167 386.054C233.801 384.947 234.686 384.005 235.751 383.303Z" fill="#FFC100"/>
<path d="M383.783 281.946L221.981 375.378C220.909 376.05 220.024 376.981 219.406 378.086L233.192 386.044C233.805 384.922 234.698 383.978 235.784 383.303L397.585 289.887L383.783 281.946Z" fill="#455A64"/>
<path d="M397.552 289.887L235.751 383.303C234.68 384.001 233.788 384.942 233.149 386.049C232.509 387.157 232.139 388.399 232.069 389.676V452.795C232.069 455.139 233.72 456.097 235.751 454.925L397.552 361.509V289.887Z" fill="#37474F"/>
<path d="M273.064 375.609L356.557 327.415C360.008 325.418 362.815 326.838 362.815 330.585C362.66 332.69 362.012 334.729 360.922 336.536C359.831 338.344 358.331 339.868 356.541 340.987L273.064 389.197C269.614 391.195 266.79 389.775 266.79 386.027C266.946 383.92 267.595 381.88 268.685 380.07C269.775 378.26 271.275 376.732 273.064 375.609Z" fill="#FFC100"/>
<path d="M290.169 391.575C290.185 391.557 290.204 391.543 290.225 391.533C290.246 391.524 290.27 391.519 290.293 391.519C290.316 391.519 290.34 391.524 290.361 391.533C290.382 391.543 290.401 391.557 290.417 391.575C290.491 391.687 290.525 391.82 290.516 391.954V401.349C290.517 402.256 290.44 403.162 290.285 404.056C290.148 404.873 289.916 405.672 289.591 406.434C289.295 407.132 288.907 407.788 288.436 408.382C287.971 408.933 287.412 409.397 286.785 409.752C286.293 410.073 285.72 410.245 285.133 410.248C284.909 410.23 284.691 410.167 284.493 410.062C284.294 409.956 284.119 409.812 283.978 409.637C283.615 409.151 283.377 408.584 283.284 407.986C283.126 407.187 283.054 406.373 283.07 405.559V396.148C283.069 395.983 283.103 395.82 283.169 395.669C283.209 395.533 283.297 395.416 283.416 395.339L284.457 394.728C284.49 394.697 284.534 394.679 284.58 394.679C284.626 394.679 284.671 394.697 284.704 394.728C284.781 394.839 284.816 394.973 284.803 395.108V404.387C284.791 404.897 284.841 405.407 284.952 405.906C284.997 406.224 285.135 406.523 285.348 406.764C285.422 406.853 285.516 406.923 285.622 406.968C285.728 407.014 285.844 407.035 285.959 407.028C286.241 407.01 286.514 406.919 286.751 406.764C287.045 406.589 287.312 406.372 287.544 406.12C287.802 405.823 288.013 405.489 288.171 405.13C288.358 404.706 288.496 404.263 288.584 403.809C288.68 403.264 288.725 402.711 288.716 402.158V392.862C288.721 392.696 288.761 392.534 288.832 392.384C288.872 392.247 288.96 392.13 289.079 392.053L290.169 391.575Z" fill="#FAFAFA"/>
<path d="M296.641 400.457C296.65 400.336 296.621 400.215 296.559 400.11C296.519 400.067 296.47 400.034 296.416 400.014C296.361 399.994 296.303 399.988 296.245 399.995C296.042 399.967 295.837 399.967 295.634 399.995L294.676 400.176C294.367 400.253 294.044 400.253 293.735 400.176C293.493 400.098 293.284 399.941 293.141 399.731C292.979 399.463 292.873 399.165 292.827 398.856C292.666 397.971 292.666 397.065 292.827 396.181C292.951 395.674 293.128 395.181 293.356 394.712C293.582 394.242 293.859 393.799 294.181 393.391C294.494 393.001 294.874 392.671 295.304 392.417C295.651 392.205 296.039 392.07 296.443 392.02C296.736 391.99 297.031 392.054 297.285 392.202C297.527 392.35 297.718 392.569 297.83 392.829C297.963 393.137 298.036 393.468 298.045 393.803C298.062 393.969 298.027 394.137 297.945 394.282C297.905 394.418 297.817 394.535 297.698 394.612L296.707 395.19C296.662 395.216 296.611 395.23 296.559 395.23C296.506 395.23 296.455 395.216 296.41 395.19L296.195 395.025C296.11 394.958 296.007 394.918 295.898 394.91C295.686 394.933 295.482 395.007 295.304 395.124C295.045 395.281 294.815 395.482 294.627 395.719C294.427 395.979 294.322 396.299 294.33 396.627C294.306 396.752 294.306 396.881 294.33 397.006C294.361 397.053 294.403 397.092 294.451 397.121C294.5 397.149 294.554 397.167 294.61 397.172C294.791 397.202 294.975 397.202 295.155 397.172L296.08 397.006C296.856 396.858 297.384 397.006 297.731 397.436C298.095 398.047 298.262 398.756 298.21 399.466C298.205 399.957 298.139 400.445 298.012 400.919C297.881 401.434 297.693 401.933 297.45 402.405C297.208 402.894 296.902 403.349 296.542 403.759C296.2 404.16 295.793 404.501 295.337 404.766C294.974 404.998 294.561 405.14 294.132 405.179C293.821 405.19 293.515 405.103 293.257 404.931C293.002 404.757 292.806 404.51 292.695 404.221C292.562 403.908 292.494 403.571 292.497 403.231C292.482 403.06 292.516 402.888 292.596 402.736C292.637 402.599 292.724 402.482 292.844 402.405L293.834 401.827C293.967 401.827 294.066 401.745 294.132 401.827L294.346 402.059C294.39 402.108 294.443 402.148 294.503 402.176C294.562 402.205 294.627 402.221 294.693 402.224C294.925 402.225 295.152 402.149 295.337 402.009C295.635 401.84 295.903 401.622 296.129 401.365C296.242 401.229 296.336 401.079 296.41 400.919C296.527 400.788 296.606 400.629 296.641 400.457Z" fill="#FAFAFA"/>
<path d="M300.009 395.983C300.006 395.125 300.078 394.269 300.224 393.424C300.362 392.628 300.577 391.849 300.868 391.096C301.111 390.421 301.444 389.782 301.858 389.197C302.205 388.694 302.655 388.272 303.179 387.959C303.562 387.702 304.029 387.601 304.484 387.678C304.887 387.772 305.241 388.013 305.474 388.355C305.785 388.803 306.004 389.308 306.118 389.841C306.276 390.534 306.354 391.243 306.349 391.954V392.978C306.355 393.15 306.315 393.321 306.234 393.473C306.193 393.609 306.105 393.726 305.986 393.803L301.693 396.297C301.683 396.587 301.722 396.877 301.809 397.155C301.873 397.342 301.987 397.508 302.139 397.634C302.275 397.741 302.445 397.794 302.618 397.782C302.817 397.759 303.009 397.691 303.179 397.584C303.429 397.449 303.653 397.27 303.84 397.056C304.009 396.866 304.153 396.655 304.269 396.429C304.34 396.298 304.417 396.171 304.5 396.049C304.571 395.965 304.655 395.892 304.748 395.834L305.771 395.24C305.807 395.212 305.85 395.196 305.895 395.196C305.94 395.196 305.984 395.212 306.019 395.24C306.062 395.292 306.094 395.353 306.111 395.419C306.128 395.484 306.13 395.553 306.118 395.62C306.1 395.941 306.033 396.259 305.92 396.561C305.778 397.019 305.589 397.461 305.359 397.881C305.1 398.365 304.79 398.819 304.434 399.235C304.079 399.661 303.655 400.024 303.179 400.309C302.789 400.564 302.322 400.675 301.858 400.622C301.452 400.525 301.098 400.277 300.868 399.929C300.543 399.428 300.324 398.866 300.224 398.278C300.074 397.522 300.002 396.753 300.009 395.983ZM303.179 390.716C302.925 390.853 302.705 391.045 302.535 391.277C302.352 391.509 302.202 391.764 302.09 392.037C301.974 392.31 301.88 392.591 301.809 392.879C301.751 393.14 301.712 393.405 301.693 393.671L304.599 392.02C304.582 391.793 304.549 391.566 304.5 391.343C304.475 391.144 304.395 390.955 304.269 390.799C304.22 390.727 304.156 390.667 304.082 390.621C304.008 390.576 303.926 390.546 303.84 390.534C303.605 390.514 303.371 390.579 303.179 390.716Z" fill="#FAFAFA"/>
<path d="M311.533 386.11C311.033 386.395 310.639 386.836 310.411 387.364C310.154 388.061 310.036 388.802 310.064 389.544V395.504C310.066 395.674 310.033 395.843 309.965 395.999C309.925 396.135 309.837 396.253 309.717 396.33L308.743 396.891C308.728 396.908 308.709 396.922 308.687 396.932C308.666 396.942 308.643 396.947 308.619 396.947C308.596 396.947 308.573 396.942 308.551 396.932C308.53 396.922 308.511 396.908 308.496 396.891C308.422 396.779 308.387 396.645 308.397 396.511V385.829C308.397 385.659 308.431 385.491 308.496 385.334C308.542 385.2 308.628 385.085 308.743 385.003L309.717 384.442C309.751 384.411 309.795 384.393 309.841 384.393C309.887 384.393 309.931 384.411 309.965 384.442C310.041 384.547 310.077 384.676 310.064 384.805V385.334C310.261 384.891 310.504 384.47 310.791 384.079C311.052 383.717 311.39 383.418 311.781 383.204L312.376 382.857C312.406 382.827 312.448 382.81 312.491 382.81C312.534 382.81 312.576 382.827 312.607 382.857C312.686 382.967 312.727 383.101 312.722 383.237V384.739C312.719 384.911 312.68 385.08 312.607 385.235C312.565 385.366 312.484 385.481 312.376 385.565L311.533 386.11Z" fill="#FAFAFA"/>
<path d="M323.85 385.317C323.866 385.3 323.885 385.285 323.906 385.276C323.927 385.266 323.951 385.261 323.974 385.261C323.997 385.261 324.021 385.266 324.042 385.276C324.063 385.285 324.082 385.3 324.098 385.317C324.172 385.429 324.207 385.563 324.197 385.697V387.348C324.196 387.518 324.162 387.686 324.098 387.843C324.041 387.966 323.956 388.073 323.85 388.157L318.204 391.459C318.17 391.49 318.126 391.508 318.08 391.508C318.034 391.508 317.99 391.49 317.956 391.459C317.882 391.353 317.847 391.225 317.857 391.096V376.236C317.858 376.067 317.891 375.898 317.956 375.741C318.002 375.612 318.089 375.502 318.204 375.427L319.244 374.817C319.277 374.785 319.322 374.768 319.368 374.768C319.414 374.768 319.458 374.785 319.491 374.817C319.565 374.923 319.6 375.051 319.591 375.18V387.744L323.85 385.317Z" fill="#FAFAFA"/>
<path d="M328.919 373.099C329.291 372.842 329.739 372.72 330.19 372.753C330.577 372.783 330.937 372.96 331.197 373.248C331.505 373.601 331.731 374.019 331.858 374.47C332.034 375.054 332.134 375.659 332.155 376.269C332.155 376.402 332.155 376.583 332.155 376.798V378.069C332.155 378.267 332.155 378.449 332.155 378.597C332.122 379.315 332.023 380.028 331.858 380.727C331.705 381.408 331.484 382.072 331.197 382.708C330.936 383.301 330.597 383.856 330.19 384.36C329.842 384.816 329.411 385.202 328.919 385.499C328.537 385.747 328.086 385.868 327.631 385.845C327.25 385.812 326.896 385.635 326.64 385.35C326.324 385.009 326.097 384.595 325.98 384.145C325.804 383.56 325.704 382.955 325.683 382.345C325.683 382.213 325.683 382.048 325.683 381.833V380.562C325.683 380.348 325.683 380.166 325.683 380.034C325.702 379.311 325.796 378.591 325.964 377.887C326.124 377.201 326.351 376.532 326.64 375.89C326.903 375.301 327.235 374.747 327.631 374.239C327.981 373.778 328.419 373.391 328.919 373.099ZM330.471 377.359C330.47 376.994 330.409 376.631 330.289 376.286C330.228 376.076 330.101 375.89 329.926 375.758C329.785 375.663 329.616 375.622 329.447 375.642C329.259 375.678 329.079 375.751 328.919 375.857C328.725 375.963 328.547 376.096 328.391 376.253C328.201 376.45 328.04 376.672 327.912 376.913C327.746 377.214 327.624 377.536 327.549 377.871C327.44 378.293 327.374 378.724 327.35 379.159C327.35 379.291 327.35 379.439 327.35 379.621V380.793C327.35 380.975 327.35 381.123 327.35 381.223C327.366 381.588 327.432 381.949 327.549 382.296C327.609 382.507 327.736 382.692 327.912 382.824C327.98 382.873 328.058 382.907 328.141 382.924C328.223 382.941 328.308 382.94 328.391 382.923C328.578 382.891 328.757 382.824 328.919 382.725C329.11 382.615 329.288 382.482 329.447 382.329C329.631 382.128 329.792 381.906 329.926 381.668C330.085 381.365 330.207 381.043 330.289 380.711C330.397 380.289 330.458 379.858 330.471 379.423C330.481 379.269 330.481 379.115 330.471 378.961V377.805C330.48 377.656 330.48 377.508 330.471 377.359Z" fill="#FAFAFA"/>
<path d="M337.207 382.758C337.418 382.629 337.608 382.467 337.768 382.279C337.967 382.046 338.139 381.791 338.28 381.52C338.444 381.188 338.572 380.839 338.66 380.48C338.761 380.075 338.811 379.659 338.809 379.241V378.399C338.809 378.564 338.643 378.762 338.528 378.994C338.415 379.235 338.282 379.467 338.132 379.687C337.959 379.919 337.772 380.14 337.57 380.347C337.363 380.565 337.124 380.748 336.86 380.892C336.691 381.008 336.499 381.088 336.298 381.128C336.096 381.168 335.889 381.166 335.688 381.123C335.321 381.009 335.006 380.769 334.797 380.447C334.527 380.02 334.332 379.551 334.219 379.06C334.078 378.436 334 377.8 333.988 377.161C333.988 376.946 333.988 376.682 333.988 376.368C333.988 376.055 333.988 375.791 333.988 375.56C334.008 374.834 334.085 374.11 334.219 373.397C334.354 372.694 334.548 372.004 334.797 371.333C335.03 370.75 335.329 370.196 335.688 369.682C335.993 369.227 336.393 368.844 336.86 368.559C337.08 368.427 337.32 368.332 337.57 368.278C337.756 368.244 337.946 368.244 338.132 368.278C338.278 368.32 338.413 368.393 338.528 368.493C338.633 368.574 338.728 368.668 338.809 368.774V368.245C338.809 368.075 338.843 367.907 338.908 367.75C338.954 367.621 339.041 367.511 339.155 367.436L340.129 366.859C340.163 366.827 340.207 366.81 340.253 366.81C340.299 366.81 340.343 366.827 340.377 366.859C340.457 366.969 340.497 367.102 340.493 367.238V377.97C340.537 379.577 340.239 381.176 339.618 382.659C339.13 383.825 338.286 384.808 337.207 385.466C336.839 385.694 336.418 385.825 335.985 385.845C335.643 385.866 335.302 385.78 335.011 385.598C334.732 385.389 334.506 385.117 334.351 384.805C334.19 384.429 334.1 384.026 334.087 383.617C334.071 383.445 334.106 383.273 334.186 383.121C334.226 382.985 334.314 382.868 334.433 382.791L335.308 382.296C335.328 382.274 335.353 382.257 335.38 382.245C335.407 382.234 335.436 382.228 335.465 382.228C335.495 382.228 335.524 382.234 335.551 382.245C335.578 382.257 335.602 382.274 335.622 382.296C335.703 382.381 335.775 382.475 335.837 382.576C335.937 382.753 336.103 382.884 336.299 382.94C336.497 383.088 336.794 382.923 337.207 382.758ZM335.655 374.75C335.655 375.191 335.655 375.62 335.655 376.038C335.608 376.698 335.795 377.353 336.183 377.887C336.33 378.014 336.518 378.084 336.712 378.084C336.906 378.084 337.093 378.014 337.24 377.887C337.719 377.576 338.093 377.127 338.313 376.6C338.614 375.911 338.782 375.171 338.809 374.42C338.809 374.173 338.809 373.875 338.809 373.529C338.809 373.182 338.809 372.885 338.809 372.67C338.842 372.079 338.667 371.494 338.313 371.019C338.167 370.885 337.975 370.81 337.777 370.81C337.578 370.81 337.386 370.885 337.24 371.019C336.77 371.329 336.403 371.772 336.183 372.29C335.844 373.067 335.665 373.903 335.655 374.75Z" fill="#FAFAFA"/>
<path d="M344.34 360.089C344.372 360.062 344.413 360.048 344.455 360.048C344.497 360.048 344.538 360.062 344.571 360.089C344.657 360.196 344.699 360.332 344.686 360.469V362.269C344.687 362.441 344.648 362.61 344.571 362.764C344.524 362.888 344.444 362.997 344.34 363.078L343.233 363.722C343.218 363.739 343.199 363.753 343.177 363.763C343.156 363.773 343.133 363.778 343.11 363.778C343.086 363.778 343.063 363.773 343.042 363.763C343.02 363.753 343.001 363.739 342.986 363.722C342.943 363.672 342.91 363.614 342.89 363.552C342.87 363.49 342.863 363.424 342.87 363.358V361.559C342.869 361.387 342.909 361.217 342.986 361.063C343.032 360.935 343.119 360.825 343.233 360.75L344.34 360.089ZM344.62 375.593C344.621 375.757 344.587 375.92 344.521 376.071C344.469 376.201 344.383 376.315 344.274 376.402L343.283 376.963C343.269 376.98 343.251 376.994 343.231 377.004C343.211 377.013 343.189 377.018 343.167 377.018C343.145 377.018 343.123 377.013 343.103 377.004C343.083 376.994 343.066 376.98 343.052 376.963C342.965 376.856 342.924 376.72 342.936 376.583V365.901C342.935 365.729 342.975 365.559 343.052 365.406C343.098 365.277 343.178 365.163 343.283 365.075L344.274 364.514C344.307 364.483 344.351 364.465 344.397 364.465C344.443 364.465 344.488 364.483 344.521 364.514C344.595 364.62 344.63 364.748 344.62 364.877V375.593Z" fill="#FAFAFA"/>
<path d="M353.305 370.557C353.304 370.727 353.27 370.895 353.206 371.052C353.159 371.181 353.073 371.291 352.958 371.366L351.967 371.944C351.936 371.974 351.895 371.991 351.852 371.991C351.809 371.991 351.767 371.974 351.736 371.944C351.65 371.837 351.608 371.701 351.621 371.564V365.752C351.671 365.066 351.546 364.379 351.257 363.755C351.026 363.342 350.663 363.276 350.151 363.573C349.641 363.916 349.262 364.423 349.078 365.009C348.802 365.788 348.668 366.61 348.682 367.436V373.265C348.681 373.435 348.647 373.603 348.583 373.76C348.542 373.896 348.454 374.013 348.335 374.09L347.361 374.651C347.345 374.669 347.326 374.683 347.305 374.693C347.284 374.702 347.261 374.707 347.237 374.707C347.214 374.707 347.191 374.702 347.169 374.693C347.148 374.683 347.129 374.669 347.113 374.651C347.037 374.547 347.002 374.417 347.014 374.288V363.606C347.012 363.436 347.046 363.267 347.113 363.111C347.154 362.975 347.242 362.857 347.361 362.781L348.335 362.219C348.351 362.202 348.37 362.188 348.391 362.178C348.412 362.168 348.435 362.163 348.459 362.163C348.482 362.163 348.505 362.168 348.527 362.178C348.548 362.188 348.567 362.202 348.583 362.219C348.657 362.331 348.691 362.465 348.682 362.599V363.111C348.899 362.608 349.164 362.126 349.474 361.674C349.746 361.257 350.114 360.912 350.547 360.667C350.923 360.393 351.391 360.274 351.852 360.337C352.034 360.383 352.205 360.467 352.353 360.584C352.501 360.7 352.623 360.847 352.71 361.014C352.95 361.461 353.107 361.948 353.173 362.45C353.261 363.107 353.305 363.769 353.305 364.432V370.557Z" fill="#FAFAFA"/>
<path d="M436.583 322.495L420.551 331.741L423.044 309.254C421.113 308.23 419.891 305.737 419.891 302.155C419.891 295.765 423.787 288.352 428.575 285.644C433.363 282.937 437.243 285.809 437.243 292.248C437.144 296.037 436.063 299.735 434.106 302.98L436.583 322.495Z" fill="#455A64"/>
<path d="M436.599 322.495L422.483 314.356L420.551 331.758L436.599 322.495Z" fill="#37474F"/>
<path d="M428.542 285.595C425.051 287.953 422.447 291.411 421.146 295.418L434.073 302.881C436.03 299.636 437.111 295.938 437.21 292.149C437.243 285.76 433.363 282.838 428.542 285.595Z" fill="#37474F"/>
<path d="M350.613 210.72C345.116 207.55 337.537 207.996 329.15 212.834C312.409 222.509 298.837 246.003 298.837 265.337C298.837 275.045 302.271 281.847 307.786 284.984L318.468 291.192C323.949 294.362 331.528 293.899 339.931 289.062C356.673 279.403 370.244 255.893 370.244 236.559C370.244 226.9 366.843 220.049 361.362 216.961" fill="#FFC100"/>
<path d="M339.915 219.058C323.173 228.733 309.602 252.244 309.602 271.561C309.602 290.878 323.173 298.737 339.915 289.062C356.656 279.387 370.244 255.893 370.228 236.559C370.211 217.225 356.64 209.4 339.915 219.058Z" fill="#FFC100"/>
<path d="M356.64 261.952V264.164C352.629 271.323 346.877 277.354 339.915 281.698C333.393 285.446 327.499 285.859 323.173 283.465V278.908C323.395 274.167 324.748 269.548 327.121 265.438C329.494 261.327 332.816 257.845 336.811 255.282L341.219 252.739C345.116 250.494 348.913 250.197 351.885 251.93C354.857 253.664 356.64 257.313 356.64 261.952Z" fill="#FFC100"/>
<path opacity="0.4" d="M350.613 210.72L361.345 216.961C355.864 213.775 348.286 214.221 339.882 219.058C328.919 225.398 319.31 237.665 313.994 250.807L303.245 244.583C308.578 231.375 318.105 219.174 329.134 212.834C337.554 208.013 345.132 207.55 350.613 210.72Z" fill="white"/>
<path opacity="0.2" d="M318.088 290.944L307.802 284.984C302.288 281.847 298.854 275.078 298.854 265.337L309.602 271.577C309.668 280.988 312.838 287.692 318.088 290.944Z" fill="black"/>
<path opacity="0.1" d="M303.278 244.583L314.027 250.807C311.273 257.387 309.793 264.429 309.668 271.561L298.92 265.32C299.052 258.195 300.531 251.159 303.278 244.583Z" fill="black"/>
<path d="M336.084 251.699C335.06 251.71 334.051 251.448 333.162 250.94C332.09 250.225 331.231 249.234 330.676 248.072C330.121 246.909 329.89 245.618 330.009 244.335C330.149 241.327 331.007 238.396 332.512 235.788C334.018 233.18 336.126 230.97 338.66 229.344C339.678 228.531 340.918 228.045 342.217 227.948C343.516 227.851 344.814 228.148 345.941 228.801C347.069 229.454 347.973 230.432 348.535 231.607C349.098 232.782 349.293 234.099 349.095 235.387C348.952 238.394 348.092 241.324 346.587 243.932C345.082 246.54 342.976 248.75 340.443 250.378C339.133 251.196 337.629 251.652 336.084 251.699Z" fill="white"/>
<path d="M351.885 251.914C348.913 250.18 345.116 250.477 341.219 252.723L336.811 255.265C332.814 257.83 329.49 261.315 327.117 265.428C324.745 269.542 323.392 274.164 323.173 278.908V283.481C327.499 285.875 333.393 285.463 339.915 281.715C346.877 277.371 352.629 271.34 356.64 264.181V261.968C356.64 257.313 354.923 253.664 351.885 251.914Z" fill="white"/>
<path d="M691.304 537.542C691.304 537.542 693.5 518.258 703.093 503.283C712.685 488.309 725.86 478.98 738.16 478.006C750.461 477.032 760.4 488.358 747.241 496.167C734.082 503.977 710.704 511.869 699.939 540.927L691.304 537.542Z" fill="#FFC100"/>
<path opacity="0.1" d="M691.304 537.542C691.304 537.542 693.5 518.258 703.093 503.283C712.685 488.309 725.86 478.98 738.16 478.006C750.461 477.032 760.4 488.358 747.241 496.167C734.082 503.977 710.704 511.869 699.939 540.927L691.304 537.542Z" fill="black"/>
<path d="M694.92 532.523H694.788C694.626 532.457 694.497 532.33 694.429 532.169C694.361 532.008 694.359 531.827 694.425 531.665C707.402 499.717 732.101 486.36 743.361 483.785C743.446 483.765 743.533 483.763 743.619 483.777C743.705 483.791 743.787 483.822 743.86 483.868C743.934 483.914 743.998 483.974 744.048 484.045C744.098 484.116 744.134 484.196 744.154 484.28C744.173 484.365 744.176 484.452 744.162 484.538C744.147 484.623 744.116 484.705 744.07 484.779C744.024 484.852 743.964 484.916 743.894 484.967C743.823 485.017 743.743 485.053 743.658 485.073C732.63 487.615 708.409 500.724 695.646 532.177C695.583 532.308 695.476 532.414 695.344 532.477C695.212 532.54 695.062 532.557 694.92 532.523Z" fill="white"/>
<path d="M760.598 532.903C759.492 535.413 756.751 536.733 754.209 537.757C751.666 538.781 748.892 539.887 747.505 542.264C744.732 547.052 749.289 553.822 746.317 558.461C745.617 559.395 744.736 560.178 743.726 560.762C742.715 561.347 741.598 561.721 740.439 561.862C738.54 562.209 736.609 562.209 734.693 562.374C733.776 562.362 732.861 562.29 731.953 562.159C729.285 561.564 726.495 561.86 724.011 563.001C720.197 565.148 719.058 569.952 716.714 573.667C715.281 575.854 713.394 577.706 711.18 579.097C708.966 580.488 706.477 581.384 703.885 581.724C702.234 581.939 698.932 582.252 697.281 581.278C697.152 581.215 697.03 581.137 696.918 581.047C696.67 580.783 696.373 580.436 696.241 580.255C696.232 580.217 696.232 580.177 696.241 580.139C695.564 577.646 696.67 575.07 696.72 572.495V572.033C696.604 569.044 696.522 566.072 696.455 563.1C696.312 557.597 696.257 552.094 696.29 546.59C696.29 543.024 695.894 539.127 697.413 535.776C699.064 532.077 703.225 531.995 704.793 528.379C705.421 526.926 705.751 525.391 706.362 523.921C707.306 521.785 708.818 519.949 710.733 518.613C712.649 517.276 714.895 516.491 717.226 516.343C724.474 515.98 730.962 521.841 738.21 521.296C740.076 521.148 741.908 520.57 743.758 520.24C749.619 519.133 756.405 520.801 759.707 525.771C760.431 526.794 760.892 527.981 761.047 529.225C761.203 530.469 761.049 531.733 760.598 532.903Z" fill="#FFC100"/>
<path d="M695.514 568.697C695.358 568.651 695.226 568.546 695.146 568.405C695.066 568.263 695.044 568.096 695.085 567.938C705.09 530.393 744.616 525.011 753.911 525.639C753.993 525.643 754.073 525.663 754.147 525.699C754.221 525.735 754.286 525.785 754.34 525.846C754.394 525.908 754.435 525.98 754.461 526.058C754.486 526.135 754.496 526.217 754.489 526.299C754.473 526.459 754.395 526.607 754.272 526.712C754.149 526.817 753.99 526.87 753.829 526.86C744.765 526.216 706.064 531.516 696.274 568.268C696.228 568.424 696.123 568.556 695.981 568.636C695.839 568.717 695.672 568.738 695.514 568.697Z" fill="white"/>
<path d="M739.481 549.678C739.356 549.66 739.24 549.602 739.151 549.512C735.497 546.345 731.189 544.024 726.534 542.714C721.879 541.404 716.992 541.138 712.223 541.934C712.062 541.949 711.902 541.903 711.773 541.805C711.645 541.707 711.558 541.565 711.529 541.406C711.505 541.244 711.545 541.079 711.641 540.947C711.737 540.814 711.88 540.724 712.041 540.696C717.016 539.868 722.112 540.151 726.964 541.523C731.817 542.896 736.305 545.326 740.109 548.637C740.167 548.694 740.214 548.762 740.245 548.837C740.277 548.913 740.293 548.993 740.293 549.075C740.293 549.156 740.277 549.237 740.245 549.312C740.214 549.387 740.167 549.455 740.109 549.512C740.034 549.601 739.934 549.665 739.821 549.695C739.709 549.724 739.59 549.718 739.481 549.678Z" fill="white"/>
<path d="M600.448 84.0861L605.698 86.1003V74.5431C605.698 65.3634 613.012 63.1675 620.954 67.7574C628.912 72.3472 635.351 83.4917 635.351 92.6714V94.3225C636.458 93.9843 637.626 93.9007 638.77 94.078C639.914 94.2553 641.002 94.6888 641.955 95.3461C644.97 97.3124 647.48 99.9624 649.278 103.081C651.077 106.199 652.115 109.698 652.307 113.293V114.052L659.637 118.279C661.621 119.574 663.271 121.317 664.456 123.368C665.64 125.418 666.326 127.719 666.456 130.084C666.456 134.443 663.402 136.209 659.637 134.03L600.448 99.8369C598.463 98.5454 596.812 96.8026 595.63 94.7509C594.448 92.6992 593.768 90.3968 593.646 88.032C593.646 83.6898 596.667 81.9232 600.448 84.0861Z" fill="#E6E6E6"/>
<path d="M670.765 74.9394L680.292 80.4373C680.24 80.021 680.212 79.602 680.209 79.1825V76.4253C680.209 71.4722 683.643 69.524 687.903 71.984C689.733 73.1047 691.299 74.6086 692.493 76.3923C693.186 70.2174 698.04 67.9225 703.918 71.3071C707.277 73.4926 710.074 76.4387 712.082 79.9067C714.09 83.3747 715.252 87.267 715.475 91.2681V95.3957C715.518 97.0449 715.185 98.6822 714.501 100.184L722.426 104.741C723.661 105.56 724.687 106.657 725.421 107.944C726.155 109.232 726.577 110.674 726.653 112.154C726.653 114.878 724.738 115.984 722.377 114.63L670.765 84.9116C669.517 84.0983 668.479 83.0012 667.736 81.7099C666.993 80.4187 666.565 78.9699 666.489 77.482C666.489 74.6917 668.404 73.5855 670.765 74.9394Z" fill="#E6E6E6"/>
<path d="M633.881 325.517C626.947 337.239 620.277 347.426 615.588 352.313C606.689 356.441 585.787 362.814 577.614 363.87C576.179 364.053 574.725 363.713 573.52 362.913C570.3 360.799 567.807 360.453 564.422 359.28C561.764 358.372 560.641 357.101 560.146 357.629C559.634 358.229 559.377 359.005 559.43 359.791C559.482 360.578 559.84 361.313 560.427 361.839C561.697 363.046 563.104 364.099 564.62 364.976C560.995 365.876 557.214 365.943 553.559 365.174C546.476 363.309 543.14 366.71 547.928 374.404C549.58 377.144 556.382 381.553 570.052 380.364C574.929 380.101 579.786 379.55 584.598 378.713C597.707 375.906 612.286 373.199 621.251 370.458C624.586 369.147 627.57 367.078 629.968 364.415C645.042 347.228 650.045 334.977 656.649 323.849L656.088 305.688C645.389 305.325 639.676 315.71 633.881 325.517Z" fill="#FFA8A7"/>
<path d="M657.92 305.325C654.818 304.888 651.656 305.309 648.775 306.539C645.894 307.77 643.404 309.765 641.575 312.308C634.244 321.703 621.267 344.256 621.267 344.256C621.267 344.256 625.511 355.566 636.969 357.464L655.378 332.6C655.378 332.6 664.095 315.33 657.92 305.325Z" fill="#455A64"/>
<path d="M697.727 558.824H685.724V580.222H697.727V558.824Z" fill="#FFA8A7"/>
<path d="M656.121 557.685L644.134 558.114L643.523 535.462L656.121 535.033V557.685Z" fill="#FFA8A7"/>
<path d="M699.411 373.595C699.411 385.515 697.661 481.556 697.661 481.556C697.925 484.99 700.963 491.33 700.352 504.522C699.444 522.435 698.239 569.523 698.239 569.523C696.178 570.577 693.905 571.149 691.591 571.195C689.276 571.241 686.982 570.759 684.882 569.787C684.882 569.787 675.141 503.746 672.994 486.063C671.112 470.56 666.291 419.246 666.291 419.246L659.803 479.905C661.178 486.413 661.678 493.076 661.288 499.717C660.727 507.972 656.864 550.701 656.864 550.701C654.79 551.924 652.465 552.66 650.065 552.851C647.665 553.043 645.253 552.686 643.011 551.807C643.011 551.807 636.176 487.417 636.044 479.855C635.879 471.27 640.04 373.496 640.04 373.496L699.411 373.595Z" fill="#37474F"/>
<path d="M685.724 574.047V572.264C684.568 572.775 681.91 583.375 677.138 587.899C673.358 591.498 668.206 595.642 666.885 599.654C665.565 603.666 674.067 606.126 677.617 605.482C681.712 604.723 688.844 601.701 690.627 598.878C692.41 596.055 693.252 591.96 694.705 589.913C696.158 587.866 699.51 585.587 700.286 583.21C700.528 580.985 700.297 578.735 699.609 576.606C699.048 574.393 698.453 571.966 697.727 572.181V573.535C696.034 574.924 693.906 575.672 691.717 575.648C689.967 575.797 685.707 575.434 685.724 574.047Z" fill="#263238"/>
<path d="M644.002 554.251C643.375 554.251 642.863 555.192 641.493 556.744C639.455 558.887 637.072 560.673 634.443 562.027C629.952 564.372 621.234 567.971 617.255 569.837C614.779 570.992 614.894 574.096 617.454 575.863C620.013 577.629 626.171 578.901 633.568 577.184C637.596 576.243 642.846 572.363 646.182 572.577C649.517 572.792 655.708 572.726 658.168 570.926C660.628 569.127 659.637 565.395 658.944 562.176C658.184 558.643 657.293 553.145 656.121 553.392V554.631C654.684 556.909 647.238 557.834 644.068 556.166L644.002 554.251Z" fill="#263238"/>
<path d="M666.291 419.246C660.047 417.202 654.339 413.789 649.583 409.257C649.583 409.257 652.885 415.548 662.395 421.409L660.347 475.579L666.291 419.246Z" fill="#263238"/>
<path d="M692.708 307.075C692.708 307.075 702.614 309.353 701.904 327.25L699.84 355.731V398.492C691.024 408.498 651.96 407.771 638.504 397.7C638.504 397.7 640.023 347.096 640.931 327.613C641.575 313.778 644.762 306.81 658.366 305.292L675.091 306.018L692.708 307.075Z" fill="#FFC100"/>
<path d="M680.094 269.893C680.151 272.289 679.733 274.673 678.864 276.907C677.996 279.141 676.693 281.18 675.033 282.909C673.372 284.637 671.386 286.019 669.188 286.976C666.991 287.933 664.626 288.445 662.23 288.484C652.323 288.484 646.512 279.932 644.365 269.893C640.403 251.517 652.356 251.286 662.23 251.286C667.066 251.386 671.664 253.402 675.014 256.891C678.364 260.381 680.191 265.057 680.094 269.893Z" fill="#263238"/>
<path d="M689.207 277.406C689.207 277.406 686.467 290.812 685.36 293.024C684.665 294.356 683.482 295.367 682.058 295.848L682.257 286.42L689.207 277.406Z" fill="#263238"/>
<path d="M685.757 258.204C685.757 258.204 687.721 257.709 689.818 260.978C691.601 263.768 692.014 270.042 689.207 277.488L684.04 278.116L685.757 258.204Z" fill="#263238"/>
<path d="M687.655 260.928L693.995 261.044C694.039 260.634 693.997 260.22 693.873 259.827C693.748 259.434 693.544 259.071 693.273 258.761C693.001 258.451 692.669 258.2 692.296 258.025C691.923 257.85 691.518 257.753 691.106 257.742C690.239 257.754 689.408 258.086 688.771 258.674C688.134 259.263 687.737 260.065 687.655 260.928Z" fill="#263238"/>
<path d="M688.431 259.426L693.12 254.918C692.85 254.6 692.517 254.341 692.142 254.158C691.766 253.974 691.357 253.871 690.94 253.854C690.522 253.837 690.106 253.906 689.717 254.058C689.328 254.21 688.974 254.441 688.679 254.737C688.057 255.345 687.687 256.165 687.641 257.033C687.595 257.902 687.877 258.756 688.431 259.426Z" fill="#263238"/>
<path d="M682.488 278.033C683.528 278.677 684.997 276.613 686.285 275.21C687.573 273.806 691.568 272.519 693.649 277.075C695.729 281.632 692.179 286.14 689.207 287.625C683.875 290.267 682.191 286.42 682.191 286.42L681.745 307.653C674.249 319.21 657.243 318.847 663.369 307.091V300.636C660.849 301.055 658.29 301.187 655.741 301.032C651.58 300.371 648.972 296.954 647.7 292.265C645.686 284.736 644.91 278.66 646.627 263.851C648.509 247.637 666.638 247.456 676.346 253.944C686.054 260.433 682.488 278.033 682.488 278.033Z" fill="#FFA8A7"/>
<path d="M659.902 261.325C664.227 260.895 668.503 260.004 672.846 259.673C673.782 259.56 674.731 259.605 675.652 259.806C678.954 260.714 678.558 264.577 679.087 267.268C679.995 271.924 680.738 279.8 682.488 279.833C683.016 279.833 684.997 276.415 686.285 275.193C686.993 274.14 687.393 272.911 687.441 271.643C687.771 269.728 687.936 267.764 688.085 265.815C688.217 264.164 688.382 262.513 688.382 260.862C688.457 258.996 688.308 257.128 687.936 255.298C687.522 253.741 686.728 252.312 685.625 251.138L685.294 250.774C683.118 248.499 680.477 246.72 677.551 245.557C673.341 243.98 668.926 243.018 664.442 242.701C659.964 242.384 655.506 241.833 651.085 241.05C650.832 240.976 650.562 240.976 650.309 241.05C650.13 241.149 649.978 241.292 649.869 241.465C649.759 241.638 649.695 241.836 649.682 242.04C649.501 243.066 649.614 244.123 650.008 245.087C650.403 246.051 651.062 246.884 651.911 247.489C648.922 247.72 645.488 246.168 642.615 245.376C642.383 245.277 642.133 245.226 641.881 245.226C641.628 245.226 641.378 245.277 641.146 245.376C640.858 245.577 640.652 245.876 640.568 246.218C640.359 246.993 640.331 247.807 640.485 248.595C640.748 250.985 641.637 253.263 643.061 255.199C645.286 258.096 648.43 260.151 651.977 261.027C654.588 261.531 657.26 261.631 659.902 261.325Z" fill="#263238"/>
<path d="M663.385 300.636C663.385 300.636 672.664 298.687 675.9 296.888C677.828 295.833 679.393 294.222 680.391 292.265C679.904 294.231 679.034 296.083 677.832 297.713C675.471 300.883 663.385 303.195 663.385 303.195V300.636Z" fill="#F28F8F"/>
<path d="M665.614 275.606C665.596 276.116 665.781 276.612 666.127 276.986C666.473 277.36 666.954 277.582 667.463 277.604C667.868 277.637 668.273 277.547 668.626 277.346C668.978 277.145 669.262 276.843 669.439 276.478C669.617 276.113 669.68 275.703 669.621 275.301C669.562 274.9 669.382 274.526 669.107 274.228C668.831 273.93 668.472 273.723 668.076 273.632C667.68 273.542 667.267 273.574 666.889 273.723C666.512 273.871 666.188 274.131 665.96 274.467C665.733 274.803 665.612 275.2 665.614 275.606Z" fill="#263238"/>
<path d="M668.586 267.598L672.565 269.893C672.854 269.328 672.92 268.673 672.749 268.061C672.577 267.449 672.182 266.924 671.64 266.591C671.377 266.443 671.085 266.352 670.784 266.323C670.483 266.293 670.179 266.327 669.891 266.422C669.604 266.517 669.34 266.67 669.115 266.873C668.89 267.075 668.71 267.322 668.586 267.598Z" fill="#263238"/>
<path d="M664.211 288.996L659.968 290.647C660.053 290.938 660.197 291.208 660.391 291.441C660.586 291.674 660.826 291.865 661.097 292.001C661.368 292.137 661.664 292.216 661.967 292.233C662.269 292.25 662.572 292.205 662.857 292.1C663.435 291.851 663.896 291.392 664.147 290.815C664.399 290.239 664.421 289.588 664.211 288.996Z" fill="#F28F8F"/>
<path d="M648.542 269.299L652.175 266.393C652.012 266.14 651.798 265.923 651.546 265.758C651.294 265.592 651.01 265.482 650.712 265.434C650.415 265.385 650.11 265.4 649.819 265.477C649.528 265.555 649.256 265.692 649.021 265.881C648.536 266.293 648.219 266.869 648.13 267.499C648.042 268.129 648.189 268.77 648.542 269.299Z" fill="#263238"/>
<path d="M650.144 275.061C650.173 275.422 650.306 275.767 650.528 276.054C650.75 276.341 651.05 276.557 651.393 276.675C651.735 276.794 652.105 276.81 652.456 276.722C652.808 276.635 653.126 276.446 653.372 276.18C653.619 275.914 653.782 275.583 653.843 275.225C653.904 274.868 653.859 274.501 653.715 274.168C653.57 273.836 653.332 273.553 653.029 273.354C652.726 273.155 652.372 273.048 652.01 273.047C651.754 273.055 651.504 273.114 651.271 273.22C651.039 273.326 650.83 273.478 650.657 273.665C650.483 273.852 650.349 274.072 650.261 274.312C650.173 274.551 650.133 274.806 650.144 275.061Z" fill="#263238"/>
<path d="M660.1 273.509L659.885 285.248L653.215 283.729L660.1 273.509Z" fill="#F28F8F"/>
<path d="M501.7 371.828L512.051 365.851L516.146 360.882L505.811 366.859L501.7 371.828Z" fill="#FFC100"/>
<path opacity="0.4" d="M501.7 371.828L512.051 365.851L516.146 360.882L505.811 366.859L501.7 371.828Z" fill="black"/>
<path d="M529.85 388.074L540.202 382.098L548.837 374.453L538.501 380.414L529.85 388.074Z" fill="#FFC100"/>
<path opacity="0.4" d="M529.85 388.074L540.202 382.098L548.837 374.453L538.501 380.414L529.85 388.074Z" fill="black"/>
<path d="M617.784 408.696C620.231 411.977 621.713 415.877 622.06 419.956C619.623 416.669 618.143 412.772 617.784 408.696ZM641.839 409.009C638.356 385.317 625.626 361.889 610.47 353.122C603.189 348.912 596.452 348.763 591.053 351.917L581.312 357.53L580.768 357.86C580.334 358.099 579.915 358.364 579.513 358.653C578.713 359.204 577.961 359.822 577.267 360.502L576.937 360.816C576.64 361.113 576.326 361.46 576.046 361.79C575.765 362.12 575.336 362.632 575.005 363.078C574.305 364 573.67 364.971 573.107 365.984C572.81 366.495 572.529 367.04 572.265 367.635L487.187 318.533L476.851 324.493V331.097L477.727 331.592L478.552 332.071V333.392L476.901 334.366V338.197L489.399 364.613L501.749 371.762L505.86 366.809L516.757 373.331L523.014 384.046L529.916 388.025L538.551 380.364L549.15 386.489L552.716 401.2L570.531 411.503C571.412 415.247 572.514 418.935 573.833 422.548C573.949 422.911 574.097 423.291 574.246 423.704C580.157 439.223 589.551 452.514 600.151 458.639C601.421 459.393 602.752 460.039 604.13 460.571C604.858 460.861 605.602 461.109 606.359 461.314C607.019 461.49 607.679 461.639 608.34 461.76C610.425 462.14 612.562 462.14 614.647 461.76L615.505 461.545C615.916 461.463 616.319 461.347 616.71 461.199L617.635 460.835C617.962 460.717 618.277 460.568 618.576 460.39C618.881 460.258 619.179 460.109 619.468 459.944L619.897 459.68C619.975 459.654 620.047 459.615 620.112 459.564C622.473 458.21 628.284 454.842 629.869 453.951C637.728 449.394 642.813 437.87 642.813 421.574C642.8 417.367 642.474 413.168 641.839 409.009Z" fill="#FFC100"/>
<path d="M614.762 428.69C610.668 426.329 607.366 419.328 607.366 413.054C607.366 406.781 610.668 403.594 614.762 405.938C618.857 408.283 622.142 415.3 622.142 421.59C622.142 427.881 618.84 431.051 614.762 428.69ZM631.487 414.97C628.02 391.294 615.291 367.849 600.118 359.099C593.084 355.037 586.579 354.74 581.296 357.53L580.751 357.86C580.317 358.099 579.898 358.364 579.496 358.653C578.696 359.204 577.945 359.822 577.251 360.502L576.921 360.816C576.623 361.113 576.31 361.46 576.029 361.79C575.748 362.12 575.319 362.632 574.989 363.078C574.288 364 573.654 364.971 573.09 365.983C572.793 366.495 572.512 367.04 572.248 367.635C570.709 370.826 569.599 374.207 568.946 377.689L476.835 324.493V331.097L477.71 331.592L478.536 332.071V333.392L476.884 334.366V338.197L489.383 364.613L501.733 371.762L505.844 366.809L516.74 373.331L522.998 384.046L529.899 388.025L538.534 380.364L549.134 386.489L552.7 401.2L570.531 411.502C571.412 415.247 572.514 418.935 573.833 422.548C573.949 422.911 574.097 423.291 574.246 423.704C580.157 439.223 589.551 452.514 600.151 458.639C601.421 459.393 602.752 460.039 604.13 460.571C604.858 460.861 605.602 461.109 606.359 461.314C607.019 461.49 607.679 461.639 608.34 461.76C610.425 462.14 612.562 462.14 614.647 461.76L615.505 461.545C615.916 461.463 616.319 461.347 616.711 461.199L617.635 460.835C617.962 460.717 618.277 460.568 618.576 460.39C618.881 460.258 619.179 460.109 619.468 459.944L619.897 459.68C619.975 459.654 620.047 459.615 620.112 459.564C627.64 454.809 632.478 443.45 632.478 427.551C632.45 423.339 632.119 419.134 631.487 414.97Z" fill="#FFC100"/>
<path opacity="0.4" d="M622.142 421.574C622.142 427.864 618.84 431.051 614.762 428.69C610.684 426.329 607.366 419.345 607.366 413.054C607.366 406.764 610.668 403.578 614.762 405.939C615.941 406.656 616.968 407.599 617.784 408.712C618.139 412.789 619.619 416.688 622.06 419.972C622.12 420.504 622.148 421.039 622.142 421.574Z" fill="black"/>
<path opacity="0.4" d="M642.78 421.557C642.78 437.853 637.695 449.377 629.836 453.934C628.185 454.826 622.44 458.194 620.079 459.548C627.607 454.793 632.445 443.433 632.445 427.534C632.427 423.328 632.107 419.129 631.487 414.97C628.02 391.294 615.291 367.849 600.118 359.099C593.084 355.037 586.579 354.74 581.296 357.53L591.037 351.917C596.436 348.763 603.172 348.912 610.453 353.122C625.626 361.889 638.356 385.317 641.823 409.009C642.452 413.163 642.772 417.357 642.78 421.557Z" fill="white"/>
<path d="M632.445 427.501C632.445 443.4 627.607 454.76 620.079 459.515C622.44 458.161 628.251 454.793 629.836 453.901C637.695 449.344 642.78 437.82 642.78 421.524C642.78 420.93 642.78 420.319 642.78 419.708L632.445 425.685C632.428 426.329 632.445 426.923 632.445 427.501Z" fill="#FFC100"/>
<path opacity="0.1" d="M632.445 427.501C632.445 443.4 627.607 454.76 620.079 459.515C622.44 458.161 628.251 454.793 629.836 453.901C637.695 449.344 642.78 437.82 642.78 421.524C642.78 420.93 642.78 420.319 642.78 419.708L632.445 425.685C632.428 426.329 632.445 426.923 632.445 427.501Z" fill="black"/>
<path opacity="0.15" d="M569.342 384.442V387.794L476.851 334.399L478.552 333.409V332.022L569.342 384.442Z" fill="black"/>
<path opacity="0.15" d="M569.342 385.829V387.794L476.851 334.399L478.552 333.409V333.392L569.342 385.829Z" fill="black"/>
<path opacity="0.15" d="M609.562 453.918C606.056 453.826 602.638 452.807 599.655 450.962C584.581 442.261 572.314 416.373 572.314 393.259C572.314 379.77 576.392 369.698 583.508 365.587C588.461 362.714 594.323 363.078 600.481 366.627C615.538 375.328 627.806 401.299 627.806 424.414C627.806 437.886 623.727 447.974 616.611 452.068C614.465 453.294 612.033 453.932 609.562 453.918ZM590.657 365.34C588.457 365.327 586.293 365.897 584.383 366.991C577.895 370.739 574.015 380.562 574.015 393.242C574.015 415.828 585.902 441.122 600.53 449.509C606.127 452.811 611.427 453.109 615.836 450.566C622.324 446.818 626.204 437.011 626.204 424.331C626.204 401.728 614.317 376.451 599.705 368.047C596.974 366.386 593.853 365.475 590.657 365.406V365.34Z" fill="black"/>
<path opacity="0.4" d="M572.182 367.602C570.643 370.793 569.533 374.174 568.88 377.656L476.769 324.46L487.104 318.5L572.182 367.602Z" fill="white"/>
<path d="M691.899 372.769C696.72 363.639 702.234 343.133 704.975 332.781C708.871 318.087 702.564 308.841 695.399 308.462C690.925 309.155 676.181 362.764 676.181 362.764C674.53 364.068 652.125 375.444 644.927 378.3C643.639 378.787 642.219 378.787 640.931 378.3C637.481 377.045 635.12 377.277 631.735 376.946C629.077 376.682 627.739 375.741 627.393 376.302C627.078 376.999 627.037 377.789 627.279 378.514C627.521 379.24 628.027 379.847 628.697 380.215C630.155 381.064 631.706 381.74 633.32 382.23C630.426 383.107 627.411 383.514 624.388 383.435C617.454 383.286 614.96 386.291 620.343 393.341C623.645 397.733 629.11 399.12 641.311 394.91C644.811 393.688 649.566 391.327 654.007 389.725C663.154 386.423 665.565 386.027 672.532 383.666C682.686 380.232 689.752 376.831 691.899 372.769Z" fill="#FFA8A7"/>
<path d="M692.708 307.075C696.918 307.652 700.963 308.594 703.456 312.028C705.949 315.462 707.947 320.283 705.503 333.409C703.632 342.64 701.127 351.731 698.007 360.618C698.007 360.618 688.2 364.811 677.782 354.179L684.948 326.474C684.948 326.474 686.103 308.461 692.708 307.075Z" fill="#455A64"/>
</svg>
