<svg width="19" height="14" viewBox="0 0 19 14" fill="none" xmlns="http://www.w3.org/2000/svg">
<path d="M0.5 13.25C0.5 13.4489 0.579018 13.6397 0.71967 13.7803C0.860322 13.921 1.05109 14 1.25 14H13.25C13.4489 14 13.6397 13.921 13.7803 13.7803C13.921 13.6397 14 13.4489 14 13.25C14 13.0511 13.921 12.8603 13.7803 12.7197C13.6397 12.579 13.4489 12.5 13.25 12.5H1.25C1.05109 12.5 0.860322 12.579 0.71967 12.7197C0.579018 12.8603 0.5 13.0511 0.5 13.25ZM0.5 1.25C0.5 1.44891 0.579018 1.63968 0.71967 1.78033C0.860322 1.92098 1.05109 2 1.25 2H11.75C11.9489 2 12.1397 1.92098 12.2803 1.78033C12.421 1.63968 12.5 1.44891 12.5 1.25C12.5 1.05109 12.421 0.860322 12.2803 0.719669C12.1397 0.579017 11.9489 0.5 11.75 0.5H1.25C1.05109 0.5 0.860322 0.579017 0.71967 0.719669C0.579018 0.860322 0.5 1.05109 0.5 1.25ZM1.25 8C1.05109 8 0.860322 7.92098 0.71967 7.78033C0.579018 7.63968 0.5 7.44891 0.5 7.25C0.5 7.05109 0.579018 6.86032 0.71967 6.71967C0.860322 6.57902 1.05109 6.5 1.25 6.5H17.75C17.9489 6.5 18.1397 6.57902 18.2803 6.71967C18.421 6.86032 18.5 7.05109 18.5 7.25C18.5 7.44891 18.421 7.63968 18.2803 7.78033C18.1397 7.92098 17.9489 8 17.75 8H1.25Z" fill="#F8F8F8"/>
</svg>
