<svg width="24" height="25" viewBox="0 0 24 25" fill="none" xmlns="http://www.w3.org/2000/svg">
<path d="M9.533 11.65C9.19173 11.9918 9.00003 12.455 9 12.938V15.5H11.578C12.061 15.5 12.525 15.308 12.867 14.966L20.467 7.362C20.6362 7.1928 20.7705 6.99193 20.8621 6.77085C20.9537 6.54976 21.0008 6.3128 21.0008 6.0735C21.0008 5.83419 20.9537 5.59723 20.8621 5.37615C20.7705 5.15507 20.6362 4.95419 20.467 4.785L19.716 4.034C19.5468 3.86461 19.3459 3.73024 19.1247 3.63856C18.9035 3.54688 18.6664 3.49969 18.427 3.49969C18.1876 3.49969 17.9505 3.54688 17.7293 3.63856C17.5081 3.73024 17.3072 3.86461 17.138 4.034L9.533 11.65Z" stroke="black" stroke-width="1.5" stroke-linecap="round" stroke-linejoin="round"/>
<path d="M21 12.5C21 16.743 21 18.864 19.682 20.182C18.364 21.5 16.242 21.5 12 21.5C7.757 21.5 5.636 21.5 4.318 20.182C3 18.864 3 16.742 3 12.5C3 8.257 3 6.136 4.318 4.818C5.636 3.5 7.758 3.5 12 3.5" stroke="black" stroke-width="1.5" stroke-linecap="round" stroke-linejoin="round"/>
</svg>
