<svg width="25" height="24" viewBox="0 0 25 24" fill="none" xmlns="http://www.w3.org/2000/svg">
<g opacity="0.76">
<path fill-rule="evenodd" clip-rule="evenodd" d="M16.1801 5.34799C15.3978 5.3472 14.6473 5.6571 14.0936 6.20955C13.5398 6.76201 13.2281 7.51178 13.2271 8.29399C13.2284 9.07621 13.5403 9.82588 14.0943 10.3781C14.6482 10.9304 15.3988 11.2401 16.1811 11.239C16.9633 11.2401 17.7139 10.9304 18.2678 10.3781C18.8218 9.82588 19.1337 9.07621 19.1351 8.29399C19.1345 7.90659 19.0577 7.52309 18.909 7.16538C18.7602 6.80767 18.5425 6.48276 18.2682 6.2092C17.9939 5.93564 17.6684 5.71878 17.3103 5.57102C16.9522 5.42325 16.5675 5.34747 16.1801 5.34799ZM14.7281 8.29399C14.7286 8.10358 14.7666 7.91513 14.84 7.73941C14.9133 7.56369 15.0206 7.40413 15.1556 7.26986C15.2906 7.13559 15.4507 7.02922 15.6269 6.95684C15.803 6.88445 15.9916 6.84747 16.1821 6.84799C16.9881 6.84799 17.6361 7.49799 17.6361 8.29399C17.6347 8.67839 17.4808 9.04652 17.2082 9.31748C16.9355 9.58845 16.5664 9.74006 16.1821 9.739C15.7977 9.74006 15.4286 9.58845 15.1559 9.31748C14.8833 9.04652 14.7294 8.67839 14.7281 8.29399Z" fill="white"/>
<path fill-rule="evenodd" clip-rule="evenodd" d="M10.03 20.878C10.3194 20.4863 10.4713 20.0099 10.462 19.523C10.854 19.639 11.242 19.653 11.614 19.583C12.382 19.437 12.951 18.951 13.253 18.551L13.258 18.544L13.263 18.537C13.4733 18.25 13.6178 17.9203 13.6862 17.5711C13.7546 17.222 13.7454 16.8621 13.659 16.517C13.586 16.216 13.4644 15.9289 13.299 15.667C13.2229 15.5265 13.1317 15.3947 13.027 15.274L13.036 15.264L13.5 14.802C13.882 14.985 14.296 15.1 14.658 15.175C15.1593 15.2778 15.6693 15.3321 16.181 15.337C20.082 15.337 23.25 12.187 23.25 8.293C23.25 4.401 20.082 1.25 16.18 1.25C12.28 1.25 9.11102 4.4 9.11102 8.293C9.11535 9.20146 9.3095 10.099 9.68102 10.928L2.42502 18.154C2.08628 18.4966 1.86021 18.9344 1.77702 19.409C1.67802 20.012 1.84002 20.683 2.42502 21.265L3.30702 22.143C3.65641 22.451 4.08606 22.6536 4.54602 22.727C4.86008 22.7755 5.18119 22.7477 5.48228 22.6461C5.78337 22.5444 6.0556 22.3719 6.27602 22.143L6.84202 21.579C7.32969 21.8641 7.90439 21.9622 8.45902 21.855C9.07799 21.7323 9.6319 21.3903 10.019 20.892L10.025 20.885L10.03 20.878ZM10.611 8.293C10.611 5.235 13.102 2.75 16.181 2.75C19.259 2.75 21.75 5.235 21.75 8.293C21.75 11.353 19.26 13.837 16.18 13.837C15.908 13.837 15.437 13.804 14.962 13.707C14.465 13.603 14.075 13.45 13.867 13.277C13.7233 13.158 13.5403 13.0969 13.3539 13.1056C13.1675 13.1143 12.9911 13.1922 12.859 13.324L11.977 14.202C11.776 14.402 11.582 14.63 11.479 14.893C11.349 15.226 11.391 15.546 11.539 15.813C11.627 15.97 11.769 16.12 11.828 16.183L11.848 16.204C11.918 16.281 11.955 16.331 11.983 16.387L12.01 16.44L12.04 16.482L12.047 16.492C12.1164 16.608 12.168 16.7337 12.2 16.865C12.254 17.094 12.254 17.365 12.05 17.655C11.871 17.8845 11.618 18.0449 11.334 18.109C11.077 18.158 10.657 18.126 10.097 17.569C9.95644 17.4289 9.76603 17.3502 9.56752 17.3502C9.36902 17.3502 9.17861 17.4289 9.03802 17.569L8.74402 17.861C8.60811 17.9961 8.52907 18.1781 8.52312 18.3696C8.51717 18.5612 8.58476 18.7477 8.71202 18.891C8.79778 19.0067 8.86524 19.1348 8.91202 19.271C8.98702 19.496 8.99902 19.737 8.81602 19.997C8.69602 20.152 8.45302 20.329 8.17702 20.381C7.94302 20.426 7.64302 20.393 7.30502 20.056C7.16444 19.9159 6.97403 19.8372 6.77552 19.8372C6.57702 19.8372 6.38661 19.9159 6.24602 20.056L5.21702 21.081C5.05202 21.245 4.90702 21.264 4.76502 21.243C4.61066 21.2158 4.46517 21.1517 4.34102 21.056L3.48402 20.202C3.24502 19.965 3.23602 19.782 3.25702 19.652C3.28921 19.4879 3.36802 19.3365 3.48402 19.216L11.128 11.603C11.2478 11.4836 11.3234 11.327 11.3425 11.1589C11.3616 10.9908 11.323 10.8212 11.233 10.678L11.231 10.675C11.2016 10.6262 11.1742 10.5761 11.149 10.525C10.7997 9.83255 10.6155 9.06857 10.611 8.293ZM8.70102 18.876C8.70102 18.878 8.70302 18.879 8.70502 18.881L8.70402 18.88L8.70102 18.876Z" fill="white"/>
</g>
</svg>
