<svg width="50" height="50" viewBox="0 0 50 50" fill="none" xmlns="http://www.w3.org/2000/svg">
<path d="M7.8125 21.875C7.3981 21.875 7.00067 21.7104 6.70765 21.4173C6.41462 21.1243 6.25 20.7269 6.25 20.3125V7.81561C6.25 7.40121 6.41462 7.00378 6.70765 6.71076C7.00067 6.41773 7.3981 6.25311 7.8125 6.25311H20.3125C20.7269 6.25311 21.1243 6.41773 21.4174 6.71076C21.7104 7.00378 21.875 7.40121 21.875 7.81561V20.3125C21.875 20.7269 21.7104 21.1243 21.4174 21.4173C21.1243 21.7104 20.7269 21.875 20.3125 21.875H7.8125ZM29.6875 21.875C29.2731 21.875 28.8757 21.7104 28.5826 21.4173C28.2896 21.1243 28.125 20.7269 28.125 20.3125V7.81561C28.125 7.40121 28.2896 7.00378 28.5826 6.71076C28.8757 6.41773 29.2731 6.25311 29.6875 6.25311H42.1844C42.5988 6.25311 42.9962 6.41773 43.2892 6.71076C43.5823 7.00378 43.7469 7.40121 43.7469 7.81561V20.3125C43.7469 20.7269 43.5823 21.1243 43.2892 21.4173C42.9962 21.7104 42.5988 21.875 42.1844 21.875H29.6875ZM7.8125 43.75C7.3981 43.75 7.00067 43.5854 6.70765 43.2923C6.41462 42.9993 6.25 42.6019 6.25 42.1875V29.6875C6.25 29.2731 6.41462 28.8757 6.70765 28.5826C7.00067 28.2896 7.3981 28.125 7.8125 28.125H20.3125C20.7269 28.125 21.1243 28.2896 21.4174 28.5826C21.7104 28.8757 21.875 29.2731 21.875 29.6875V42.1875C21.875 42.6019 21.7104 42.9993 21.4174 43.2923C21.1243 43.5854 20.7269 43.75 20.3125 43.75H7.8125ZM29.6875 43.75C29.2731 43.75 28.8757 43.5854 28.5826 43.2923C28.2896 42.9993 28.125 42.6019 28.125 42.1875V29.6875C28.125 29.2731 28.2896 28.8757 28.5826 28.5826C28.8757 28.2896 29.2731 28.125 29.6875 28.125H42.1844C42.5988 28.125 42.9962 28.2896 43.2892 28.5826C43.5823 28.8757 43.7469 29.2731 43.7469 29.6875V42.1875C43.7469 42.6019 43.5823 42.9993 43.2892 43.2923C42.9962 43.5854 42.5988 43.75 42.1844 43.75H29.6875Z" fill="black"/>
</svg>
