<svg width="21" height="20" viewBox="0 0 21 20" fill="none" xmlns="http://www.w3.org/2000/svg">
<path d="M20.1488 17.875C18.7209 15.4066 16.5206 13.6366 13.9528 12.7975C15.223 12.0414 16.2098 10.8892 16.7618 9.51793C17.3137 8.14667 17.4003 6.63213 17.0082 5.2069C16.6161 3.78167 15.767 2.52456 14.5912 1.62862C13.4155 0.73268 11.9782 0.247452 10.5 0.247452C9.02182 0.247452 7.58451 0.73268 6.40878 1.62862C5.23306 2.52456 4.38394 3.78167 3.99183 5.2069C3.59971 6.63213 3.68629 8.14667 4.23825 9.51793C4.79021 10.8892 5.77704 12.0414 7.0472 12.7975C4.47938 13.6356 2.27907 15.4056 0.85126 17.875C0.798899 17.9604 0.764169 18.0554 0.749118 18.1544C0.734067 18.2534 0.739 18.3544 0.763626 18.4515C0.788252 18.5486 0.832073 18.6398 0.892502 18.7196C0.952931 18.7995 1.02874 18.8665 1.11547 18.9165C1.2022 18.9666 1.29808 18.9989 1.39745 19.0113C1.49683 19.0237 1.5977 19.0161 1.69409 18.989C1.79049 18.9618 1.88047 18.9156 1.95872 18.8531C2.03697 18.7906 2.1019 18.713 2.1497 18.625C3.91595 15.5725 7.03782 13.75 10.5 13.75C13.9622 13.75 17.0841 15.5725 18.8503 18.625C18.8981 18.713 18.9631 18.7906 19.0413 18.8531C19.1196 18.9156 19.2095 18.9618 19.3059 18.989C19.4023 19.0161 19.5032 19.0237 19.6026 19.0113C19.7019 18.9989 19.7978 18.9666 19.8845 18.9165C19.9713 18.8665 20.0471 18.7995 20.1075 18.7196C20.1679 18.6398 20.2118 18.5486 20.2364 18.4515C20.261 18.3544 20.266 18.2534 20.2509 18.1544C20.2358 18.0554 20.2011 17.9604 20.1488 17.875ZM5.25001 7C5.25001 5.96165 5.55792 4.94662 6.13479 4.08326C6.71167 3.2199 7.53161 2.54699 8.49092 2.14963C9.45023 1.75227 10.5058 1.64831 11.5242 1.85088C12.5426 2.05345 13.4781 2.55347 14.2123 3.28769C14.9465 4.02192 15.4466 4.95738 15.6491 5.97578C15.8517 6.99418 15.7477 8.04978 15.3504 9.00909C14.953 9.9684 14.2801 10.7883 13.4168 11.3652C12.5534 11.9421 11.5384 12.25 10.5 12.25C9.10808 12.2485 7.77359 11.6949 6.78934 10.7107C5.8051 9.72643 5.2515 8.39193 5.25001 7Z" fill="white"/>
</svg>
