<svg width="20" height="19" viewBox="0 0 20 19" fill="none" xmlns="http://www.w3.org/2000/svg">
<path d="M8.5 17.5C8.5 17.8978 8.65804 18.2794 8.93934 18.5607C9.22064 18.842 9.60218 19 10 19C10.3978 19 10.7794 18.842 11.0607 18.5607C11.342 18.2794 11.5 17.8978 11.5 17.5V11H18C18.3978 11 18.7794 10.842 19.0607 10.5607C19.342 10.2794 19.5 9.89782 19.5 9.5C19.5 9.10218 19.342 8.72064 19.0607 8.43934C18.7794 8.15804 18.3978 8 18 8H11.5V1.5C11.5 1.10218 11.342 0.720644 11.0607 0.43934C10.7794 0.158035 10.3978 0 10 0C9.60218 0 9.22064 0.158035 8.93934 0.43934C8.65804 0.720644 8.5 1.10218 8.5 1.5V8H2C1.60218 8 1.22064 8.15804 0.93934 8.43934C0.658035 8.72064 0.5 9.10218 0.5 9.5C0.5 9.89782 0.658035 10.2794 0.93934 10.5607C1.22064 10.842 1.60218 11 2 11H8.5V17.5Z" fill="white"/>
</svg>
